# xmcd
#
# Track frame offsets:
#	150
#	10608
#	23945
#	42999
#	66937
#	86386
#	108174
#	126921
#	147191
#	166059
#	187829
#	210047
#	228027
#	245404
#	262096
#	280793
#	300869
#	316382
#
# Disc length: 4469 seconds
#
# Revision: 0
# Processed by: cddbd v1.5.2PL0 Copyright (c) Steve Scherf et al.
# Submitted via: EZCDAudioConverter 8.0.2.1
#
DISCID=db117312
DTITLE=Various Artist -  20th Ben Thanh Audio Video's Anniversary [CD3)
DYEAR=2010
DGENRE=
TTITLE0=Mỹ Tâm - Tóc nâu môi trầm
TTITLE1=Kasim Hoàng Vũ - Vì yêu
TTITLE2=Thanh Thảo - Có quên được đâu
TTITLE3=Khánh Loan, Jimmy Nguyễn - Bắt đầu lại thôi
TTITLE4=MTV - Vòng tay bình yên
TTITLE5=Như Ý - Anh không là giấc mơ
TTITLE6=Phương Anh - Hoàng hôn dốc
TTITLE7=Đan Trường - Nơi bình yên
TTITLE8=Tùng Lâm, Mắt Ngọc - Khi xưa ta bé
TTITLE9=Thùy Lâm - Giấc mơ dịu êm
TTITLE10=3 Con Mèo - Mẹ yêu
TTITLE11=Thanh Thảo, Huỳnh Nhiên - Búp bê happy
TTITLE12=Thủy Tiên, Đăng Khôi - Ngôi sao pha lê
TTITLE13=Mây Trắng - Thầm mong anh quay về
TTITLE14=Lý Hải - Nước mắt tình nhân
TTITLE15=Phạm Thanh Thảo - Tình đầu
TTITLE16=Lương Bằng Quang, Thu Thủy - Anh tin mình đã cho nhau một kỷ niệm
TTITLE17=Phạm Khánh Hưng - Cám ơn bạn tôi
EXTD=
EXTT0=
EXTT1=
EXTT2=
EXTT3=
EXTT4=
EXTT5=
EXTT6=
EXTT7=
EXTT8=
EXTT9=
EXTT10=
EXTT11=
EXTT12=
EXTT13=
EXTT14=
EXTT15=
EXTT16=
EXTT17=
PLAYORDER=
